<?xml version="1.0" encoding="UTF-8"?>
<svg width="152px" height="200px" viewBox="0 0 152 200" version="1.1" xmlns="http://www.w3.org/2000/svg" xmlns:xlink="http://www.w3.org/1999/xlink">
    <!-- Generator: Sketch 49 (51002) - http://www.bohemiancoding.com/sketch -->
    <title>Logo</title>
    <desc>Created with Sketch.</desc>
    <defs></defs>
    <g id="Logo" stroke="none" stroke-width="1" fill="none" fill-rule="evenodd">
        <g id="Group" transform="translate(6.000000, 3.000000)">
            <path d="M113.736328,20.374809 C113.736328,22.3190742 118.611277,21.4750478 118.8056,20.1555263 C119.8056,13.3651838 119.8056,7.77677994 118.8056,2.015625 C118.631607,1.01322386 113.736328,0.318786824 113.736328,2.015625 C113.736328,8.01366158 113.736328,13.7965961 113.736328,20.374809 Z" id="Path" fill="#4158D0"></path>
            <path d="M124.673174,19.9017114 C124.7995,22.0024256 137.353652,22.0207721 138.40625,19.3076566 C140.59653,13.6621174 140.191903,5.48890678 138.40625,2.015625 C137.106993,-0.51156655 125.167323,-0.314399119 124.7995,2.015625 C123.7995,8.35026969 124.40203,15.3928057 124.673174,19.9017114 Z" id="Path" fill="#0E1B5D"></path>
            <path d="M112.736328,46.0223649 C112.736328,64.6510742 113.069661,87.4600255 113.736328,114.449219 C113.736328,131.4044 110.984167,143.725612 105.354176,151.434369 C97.0122553,162.87226 85.1687932,168.621094 70.0234375,168.621094 C65.3050125,168.621094 60.9066273,168.057008 56.8338482,166.930008 C60.6274073,183.109691 62.9105031,191.199533 63.6831358,191.199533 C65.7404797,191.199533 67.8322968,191.44529 69.9622421,191.44529 C71.158817,191.44529 116.991079,145.565415 118.8056,141.951771 C119.577835,140.413855 118.8056,89.4525562 118.8056,47.0281704 C118.8056,45.8091724 112.736328,45.0281704 112.736328,46.0223649 Z" id="Path" fill="#4158D0"></path>
            <path d="M139.40625,46.8327873 C138.480903,45.9374003 124.565875,46.8084456 124.484029,47.6818605 C123.137567,62.0505484 122.374755,77.2304297 122.137567,92.4619633 C121.850062,110.924779 123.45334,127.759224 123.847235,135.843027 C124.037031,139.73818 138.40625,124.779544 138.40625,122.090214 C138.40625,94.1060708 140.283733,47.6818605 139.40625,46.8327873 Z" id="Path" fill="#0E1B5D"></path>
            <path d="M3.8272122,142.409789 C3.8272122,146.07452 12.2195316,162.410405 19.9053181,170.399582 C30.6836174,181.558292 43.4178076,188.270188 58.1690144,190.557801 C58.1690144,190.557801 55.3784532,181.793557 49.7973309,164.265069 C47.7842608,163.275102 45.8698177,162.116586 44.0549155,160.789712 C17.2364466,147.333571 3.8272122,141.20693 3.8272122,142.409789 Z" id="Path" fill="#4158D0"></path>
            <path d="M26.4335938,114.449219 C26.7325248,104.553356 26.3991915,100.040332 25.4335938,100.910145 C18.3575749,107.284242 1.79871555,122.324219 1.79871555,124.877046 C1.79871555,132.157403 1.87175219,134.07932 2.87922045,136.193524 C3.89461523,138.324361 25.4303869,148.383006 34.0307322,150.268622 C35.9273952,150.684463 26.4335938,130.369319 26.4335938,114.449219 Z" id="Path" fill="#4158D0"></path>
            <path d="M74.285271,191.335604 C92.3099772,190.396597 107.605304,183.429027 120.26181,170.402481 C130.643982,159.610486 138.041015,143.287102 138.041015,130.418749 C138.041015,129.777056 116.7891,150.082674 74.285271,191.335604 Z" id="Path" fill="#4158D0"></path>
            <path d="M19.4183918,50.2015728 C10.8395332,50.2015728 1.76367187,51.8786098 1.79871555,54.6854632 C2.12274643,80.638993 -0.476767363,118.157683 1.76367187,119.720979 C3.32557754,120.810819 11.5488848,112.012517 26.4335937,93.3260727 L26.4335937,59.1649362 C23.1103229,53.1893606 20.7719223,50.2015728 19.4183918,50.2015728 Z" id="Path" fill="#4158D0"></path>
            <path d="M15.9050838,45.7125991 C14.1397741,43.1526573 4.16770183,29.9043773 1.76367188,27.6440365 C0.130627022,26.1085989 1.30295519,45.874838 1.76367188,47.1394722 C2.87922045,50.2015728 17.0254814,47.3373296 15.9050838,45.7125991 Z" id="Path" fill="#4158D0"></path>
            <path d="M26.4335937,2.015625 L1.76367188,2.015625 C0.672430944,12.1523563 0.672430944,18.8204054 1.76367188,22.0197724 C3.66100491,27.5824895 22.5195283,50.2015728 26.4335937,50.2015728 C27.9181867,50.2015728 27.9181867,34.1395902 26.4335937,2.015625 Z" id="Path" fill="#4158D0"></path>
        </g>
    </g>
</svg>